0
SECTION
2
HEADER
9
$INSUNITS
70
4
9
$ACADVER
1
AC1014
9
$HANDSEED
5
FFFF
0
ENDSEC
0
SECTION
2
TABLES
0
TABLE
2
VPORT
5
8
100
AcDbSymbolTable
0
ENDTAB
0
TABLE
2
LTYPE
5
5
100
AcDbSymbolTable
0
LTYPE
5
14
100
AcDbSymbolTableRecord
100
AcDbLinetypeTableRecord
2
BYBLOCK
70
0
0
LTYPE
5
15
100
AcDbSymbolTableRecord
100
AcDbLinetypeTableRecord
2
BYLAYER
70
0
0
ENDTAB
0
TABLE
2
LAYER
5
2
100
AcDbSymbolTable
70
2
0
LAYER
5
50
100
AcDbSymbolTableRecord
100
AcDbLayerTableRecord
2
0
70
0
6
CONTINUOUS
0
ENDTAB
0
TABLE
2
STYLE
5
3
100
AcDbSymbolTable
70
1
0
STYLE
5
11
100
AcDbSymbolTableRecord
100
AcDbTextStyleTableRecord
2
STANDARD
70
0
0
ENDTAB
0
TABLE
2
VIEW
5
6
100
AcDbSymbolTable
70
0
0
ENDTAB
0
TABLE
2
UCS
5
7
100
AcDbSymbolTable
70
0
0
ENDTAB
0
TABLE
2
APPID
5
9
100
AcDbSymbolTable
70
2
0
APPID
5
12
100
AcDbSymbolTableRecord
100
AcDbRegAppTableRecord
2
ACAD
70
0
0
ENDTAB
0
TABLE
2
DIMSTYLE
5
A
100
AcDbSymbolTable
70
1
0
ENDTAB
0
TABLE
2
BLOCK_RECORD
5
1
100
AcDbSymbolTable
70
1
0
BLOCK_RECORD
5
1F
100
AcDbSymbolTableRecord
100
AcDbBlockTableRecord
2
*MODEL_SPACE
0
BLOCK_RECORD
5
1B
100
AcDbSymbolTableRecord
100
AcDbBlockTableRecord
2
*PAPER_SPACE
0
ENDTAB
0
ENDSEC
0
SECTION
2
BLOCKS
0
BLOCK
5
20
100
AcDbEntity
100
AcDbBlockBegin
2
*MODEL_SPACE
0
ENDBLK
5
21
100
AcDbEntity
100
AcDbBlockEnd
0
BLOCK
5
1C
100
AcDbEntity
100
AcDbBlockBegin
2
*PAPER_SPACE
0
ENDBLK
5
1D
100
AcDbEntity
100
AcDbBlockEnd
0
ENDSEC
0
SECTION
2
ENTITIES
0
LINE
5
100
100
AcDbEntity
8
0
100
AcDbLine
10
-112.73976696508937
20
-64.962059717759345
30
0
11
-84.099179514373816
21
-55.849145528895306
31
0
0
LINE
5
101
100
AcDbEntity
8
0
100
AcDbLine
10
-123.93563296855091
20
-57.671728366668148
30
0
11
-126.53932273679777
21
-45.174017479083162
31
0
0
LINE
5
102
100
AcDbEntity
8
0
100
AcDbLine
10
-105.97017356764751
20
-29.551878869601946
30
0
11
-86.182131328971323
21
-29.551878869601946
31
0
0
LINE
5
103
100
AcDbEntity
8
0
100
AcDbLine
10
-105.97017356764751
20
-29.551878869601946
30
0
11
-100
21
-10
31
0
0
LINE
5
104
100
AcDbEntity
8
0
100
AcDbLine
10
-100
20
-10
30
0
11
-77.589955093756657
21
-1.1716603957110827
31
0
0
LINE
5
105
100
AcDbEntity
8
0
100
AcDbLine
10
-98.159104262906908
20
54.547300644771894
30
0
11
-74.465527371860418
21
9.5034676541010654
31
0
0
LINE
5
106
100
AcDbEntity
8
0
100
AcDbLine
10
-40
20
44.913648502258482
30
0
11
-75.379762108471326
21
70.6294663867927
31
0
0
LINE
5
107
100
AcDbEntity
8
0
100
AcDbLine
10
-114.82271877968687
20
74.595711860272772
30
0
11
-88.26508314356883
21
77.459770605344332
31
0
0
LINE
5
108
100
AcDbEntity
8
0
100
AcDbLine
10
-122.89415706125214
20
-88.916005585630543
30
0
11
-90.608403934990989
21
-84.22936400278617
31
0
0
LINE
5
109
100
AcDbEntity
8
0
100
AcDbLine
10
-74.986265325509791
20
-78.761615489467772
30
0
11
-40.877929361475829
21
-56.630252459369373
31
0
0
LINE
5
110
100
AcDbEntity
8
0
100
AcDbLine
10
0
20
-52.724717806999081
30
0
11
-23.172838937397096
21
-52.724717806999081
31
0
0
LINE
5
111
100
AcDbEntity
8
0
100
AcDbLine
10
-25.00000037252903
20
41.000000610947609
30
0
11
0
21
41.000000610947609
31
0
0
SPLINE
5
112
100
AcDbEntity
8
0
100
AcDbSpline
70
4
71
5
72
16
73
10
74
0
42
0.000000001
43
0.0000000001
44
0.0000000001
40
0
40
0
40
0
40
0
40
0
40
0
40
0.20000000000000001
40
0.40000000000000002
40
0.60000000000000009
40
0.80000000000000004
40
1
40
1
40
1
40
1
40
1
40
1
41
1
41
1
41
1
41
1
41
1
41
1
41
1
41
1
41
1
41
1
10
-25.00000037252903
20
41.000000610947609
30
0
10
-25.634630714770125
20
41.000000610947609
30
0
10
-26.901973983543247
20
41.026496743727222
30
0
10
-28.797234020533288
20
41.145676099392659
30
0
10
-31.30757996134184
20
41.457344642498995
30
0
10
-34.379285050499902
20
42.128279751185012
30
0
10
-36.733941724234306
20
42.967633723949312
30
0
10
-38.408534455391269
20
43.834731830073899
30
0
10
-39.4774345753181
20
44.533821265074863
30
0
10
-40
20
44.913648502258482
30
0
0
SPLINE
5
113
100
AcDbEntity
8
0
100
AcDbSpline
70
4
71
5
72
16
73
10
74
0
42
0.000000001
43
0.0000000001
44
0.0000000001
40
0
40
0
40
0
40
0
40
0
40
0
40
0.20000000000000001
40
0.40000000000000002
40
0.60000000000000009
40
0.80000000000000004
40
1
40
1
40
1
40
1
40
1
40
1
41
1
41
1
41
1
41
1
41
1
41
1
41
1
41
1
41
1
41
1
10
-88.26508314356883
20
77.459770605344332
30
0
10
-87.609233119317764
20
77.530499529528271
30
0
10
-86.346439722185991
20
77.556804977127982
30
0
10
-84.598830057212808
20
77.251130771279421
30
0
10
-82.514881225892793
20
76.260686935818157
30
0
10
-80.13692225916455
20
74.462072530685276
30
0
10
-78.278062821046717
20
72.874697130559539
30
0
10
-76.849485231328515
20
71.722957665257724
30
0
10
-75.873593101051682
20
70.988407971306472
30
0
10
-75.379762108471326
20
70.6294663867927
30
0
0
SPLINE
5
114
100
AcDbEntity
8
0
100
AcDbSpline
70
4
71
5
72
16
73
10
74
0
42
0.000000001
43
0.0000000001
44
0.0000000001
40
0
40
0
40
0
40
0
40
0
40
0
40
0.20000000000000001
40
0.40000000000000002
40
0.60000000000000009
40
0.80000000000000004
40
1
40
1
40
1
40
1
40
1
40
1
41
1
41
1
41
1
41
1
41
1
41
1
41
1
41
1
41
1
41
1
10
-74.465527371860418
20
9.5034676541010654
30
0
10
-74.212275506326378
20
9.0220108108330273
30
0
10
-73.78876149863639
20
8.0485204541588189
30
0
10
-73.402261762193802
20
6.5566086415011595
30
0
10
-73.338403653351506
20
4.534580731255712
30
0
10
-73.919159266110071
20
2.1249249291287646
30
0
10
-74.942829230293938
20
0.48195192318117408
30
0
10
-76.097745253604018
20
-0.47270368636017629
30
0
10
-77.060405767292025
20
-0.963046744519792
30
0
10
-77.589955093756657
20
-1.1716603957110827
30
0
0
SPLINE
5
115
100
AcDbEntity
8
0
100
AcDbSpline
70
4
71
5
72
16
73
10
74
0
42
0.000000001
43
0.0000000001
44
0.0000000001
40
0
40
0
40
0
40
0
40
0
40
0
40
0.20000000000000001
40
0.40000000000000002
40
0.60000000000000009
40
0.80000000000000004
40
1
40
1
40
1
40
1
40
1
40
1
41
1
41
1
41
1
41
1
41
1
41
1
41
1
41
1
41
1
41
1
10
-86.182131328971323
20
-29.551878869601946
30
0
10
-84.179613456549717
20
-29.551878869601946
30
0
10
-80.617907228969088
20
-30.007808045844587
30
0
10
-76.604251154531411
20
-32.058117170090014
30
0
10
-73.640081912549789
20
-37.025040890682902
30
0
10
-73.264283156186835
20
-44.843153980509456
30
0
10
-75.59888654824438
20
-50.610852130768869
30
0
10
-79.095484092114631
20
-53.796144669705029
30
0
10
-82.287648226192232
20
-55.272749209928442
30
0
10
-84.099179514373816
20
-55.849145528895306
30
0
0
SPLINE
5
116
100
AcDbEntity
8
0
100
AcDbSpline
70
4
71
5
72
16
73
10
74
0
42
0.000000001
43
0.0000000001
44
0.0000000001
40
0
40
0
40
0
40
0
40
0
40
0
40
0.20000000000000001
40
0.40000000000000002
40
0.60000000000000009
40
0.80000000000000004
40
1
40
1
40
1
40
1
40
1
40
1
41
1
41
1
41
1
41
1
41
1
41
1
41
1
41
1
41
1
41
1
10
-123.93563296855091
20
-57.671728366668148
30
0
10
-123.80107963774162
20
-58.317584354552707
30
0
10
-123.44431115281209
20
-59.548307405620299
30
0
10
-122.64640594442068
20
-61.211549453408587
30
0
10
-121.12641324537611
20
-63.079043706575114
30
0
10
-118.6984121034491
20
-64.777798258321127
30
0
10
-116.46454987825557
20
-65.461400687688524
30
0
10
-114.65483654710752
20
-65.446645118395978
30
0
10
-113.38816258637502
20
-65.168367415441139
30
0
10
-112.73976696508937
20
-64.962059717759345
30
0
0
SPLINE
5
117
100
AcDbEntity
8
0
100
AcDbSpline
70
4
71
5
72
16
73
10
74
0
42
0.000000001
43
0.0000000001
44
0.0000000001
40
0
40
0
40
0
40
0
40
0
40
0
40
0.20000000000000001
40
0.40000000000000002
40
0.60000000000000009
40
0.80000000000000004
40
1
40
1
40
1
40
1
40
1
40
1
41
1
41
1
41
1
41
1
41
1
41
1
41
1
41
1
41
1
41
1
10
-90.608403934990989
20
-84.22936400278617
30
0
10
-89.944496246011624
20
-84.132990305998845
30
0
10
-88.622767491400708
20
-83.915846142489855
30
0
10
-86.658422849074697
20
-83.516994667286355
30
0
10
-84.075126172491608
20
-82.849786158781583
30
0
10
-80.916661114672038
20
-81.799641348547169
30
0
10
-78.470017640464945
20
-80.756518080175951
30
0
10
-76.699359400345358
20
-79.824861108219494
30
0
10
-75.551810229781324
20
-79.128572106743192
30
0
10
-74.986265325509791
20
-78.761615489467772
30
0
0
SPLINE
5
118
100
AcDbEntity
8
0
100
AcDbSpline
70
4
71
5
72
16
73
10
74
0
42
0.000000001
43
0.0000000001
44
0.0000000001
40
0
40
0
40
0
40
0
40
0
40
0
40
0.20000000000000001
40
0.40000000000000002
40
0.60000000000000009
40
0.80000000000000004
40
1
40
1
40
1
40
1
40
1
40
1
41
1
41
1
41
1
41
1
41
1
41
1
41
1
41
1
41
1
41
1
10
-40.877929361475829
20
-56.630252459369373
30
0
10
-40.241225963307755
20
-56.217124300252685
30
0
10
-38.946443461955795
20
-55.463915371350403
30
0
10
-36.940200766052378
20
-54.553048847931564
30
0
10
-34.155167269995239
20
-53.717639210770599
30
0
10
-30.554751688233395
20
-53.105199410995027
30
0
10
-27.620310758494263
20
-52.843739424638308
30
0
10
-25.402304358633486
20
-52.746364579271081
30
0
10
-23.917085598199314
20
-52.724717806999081
30
0
10
-23.172838937397096
20
-52.724717806999081
30
0
0
SPLINE
5
119
100
AcDbEntity
8
0
100
AcDbSpline
70
12
71
2
41
1
41
0.46899826070605932
41
1
72
6
73
3
74
0
42
0.000000001
43
0.0000000001
44
0.0000000001
40
0
40
0
40
0
40
14.511155218617933
40
14.511155218617933
40
14.511155218617933
10
-145.70251193917838
20
-73.640483962033812
30
0
10
-190.04759892945634
20
15.746209709468877
30
0
10
-145.93468516949397
20
68.68170622142371
30
0
0
SPLINE
5
120
100
AcDbEntity
8
0
100
AcDbSpline
70
4
71
5
72
16
73
10
74
0
42
0.000000001
43
0.0000000001
44
0.0000000001
40
0
40
0
40
0
40
0
40
0
40
0
40
0.20000000000000001
40
0.40000000000000002
40
0.60000000000000009
40
0.80000000000000004
40
1
40
1
40
1
40
1
40
1
40
1
41
1
41
1
41
1
41
1
41
1
41
1
41
1
41
1
41
1
41
1
10
-114.82271877968687
20
74.595711860272772
30
0
10
-116.08509484397635
20
74.459573265104297
30
0
10
-118.65113079822095
20
74.269437669277337
30
0
10
-122.62388053306053
20
74.230331317569011
30
0
10
-128.09583884369889
20
74.510690268504462
30
0
10
-134.8588068388778
20
74.580398556546911
30
0
10
-139.83272385363642
20
73.54299257209621
30
0
10
-143.09957116488096
20
71.636142582835348
30
0
10
-145.03079853618885
20
69.766370181389846
30
0
10
-145.93468516949397
20
68.68170622142371
30
0
0
SPLINE
5
121
100
AcDbEntity
8
0
100
AcDbSpline
70
4
71
5
72
16
73
10
74
0
42
0.000000001
43
0.0000000001
44
0.0000000001
40
0
40
0
40
0
40
0
40
0
40
0
40
0.20000000000000001
40
0.40000000000000002
40
0.60000000000000009
40
0.80000000000000004
40
1
40
1
40
1
40
1
40
1
40
1
41
1
41
1
41
1
41
1
41
1
41
1
41
1
41
1
41
1
41
1
10
-145.70251193917838
20
-73.640483962033812
30
0
10
-145.16606268611187
20
-74.721808372665208
30
0
10
-144.00371693475864
20
-76.822272682818578
30
0
10
-141.99207869071347
20
-79.786511989158143
30
0
10
-138.83094315663067
20
-83.355522334496413
30
0
10
-134.23009002193081
20
-86.953926878634377
30
0
10
-130.05703227339126
20
-88.765600277380528
30
0
10
-126.61113877865861
20
-89.239065385003954
30
0
10
-124.15898651464025
20
-89.09960986112236
30
0
10
-122.89415706125214
20
-88.916005585630543
30
0
0
LINE
5
122
100
AcDbEntity
8
0
100
AcDbLine
10
-123.93563296855091
20
-57.671728366668148
30
0
11
-148.85443069542967
21
-66.405233984271831
31
0
0
LINE
5
123
100
AcDbEntity
8
0
100
AcDbLine
10
-114.82271877968687
20
74.595711860272772
30
0
11
-109.49757169614179
21
59.401783001594417
31
0
0
LINE
5
124
100
AcDbEntity
8
0
100
AcDbLine
10
-104.74478238957087
20
-25.5388129829641
30
0
11
-124.11040151982839
21
-23.026719753234886
31
0
0
LINE
5
125
100
AcDbEntity
8
0
100
AcDbLine
10
-119.58391450346738
20
-8.202808045155459
30
0
11
-101.16827943714873
21
-13.826029140050494
31
0
0
SPLINE
5
126
100
AcDbEntity
8
0
100
AcDbSpline
70
4
71
5
72
16
73
10
74
0
42
0.000000001
43
0.0000000001
44
0.0000000001
40
0
40
0
40
0
40
0
40
0
40
0
40
0.20000000000000001
40
0.40000000000000002
40
0.60000000000000009
40
0.80000000000000004
40
1
40
1
40
1
40
1
40
1
40
1
41
1
41
1
41
1
41
1
41
1
41
1
41
1
41
1
41
1
41
1
10
-105.97017356764751
20
-29.551878869601946
30
0
10
-107.16538033051761
20
-29.551878869601946
30
0
10
-109.57375272342988
20
-29.678935737996973
30
0
10
-113.24001891390216
20
-30.250401395323369
30
0
10
-118.11664907171522
20
-31.714597716000007
30
0
10
-123.46116197841752
20
-34.646375020310039
30
0
10
-126.28230813611364
20
-38.006620069953989
30
0
10
-127.03521925071723
20
-41.265464071415778
30
0
10
-126.8236504938493
20
-43.809244245235789
30
0
10
-126.53932273679777
20
-45.174017479083162
30
0
0
LINE
5
127
100
AcDbEntity
8
0
100
AcDbLine
10
-111.02316700552552
20
63.754674336659399
30
0
11
-127.16246051792176
21
58.098197162296046
31
0
0
LINE
5
128
100
AcDbEntity
8
0
100
AcDbLine
10
-135.71906303560795
20
66.998747430933591
30
0
11
-113.91892888747238
21
72.016981336954032
31
0
0
LINE
5
129
100
AcDbEntity
8
0
100
AcDbLine
10
-142.50144556296965
20
-64.178648578706913
30
0
11
-149.69658924760242
21
-43.649168442826763
31
0
0
LINE
5
130
100
AcDbEntity
8
0
100
AcDbLine
10
-133.1234949957331
20
-37.840653387798632
30
0
11
-130.16549120369785
21
-59.855160428273692
31
0
0
SPLINE
5
131
100
AcDbEntity
8
0
100
AcDbSpline
70
4
71
5
72
16
73
10
74
0
42
0.000000001
43
0.0000000001
44
0.0000000001
40
0
40
0
40
0
40
0
40
0
40
0
40
0.20000000000000001
40
0.40000000000000002
40
0.60000000000000009
40
0.80000000000000004
40
1
40
1
40
1
40
1
40
1
40
1
41
1
41
1
41
1
41
1
41
1
41
1
41
1
41
1
41
1
41
1
10
-133.1234949957331
20
-37.840653387798632
30
0
10
-133.23179953163853
20
-37.034612849708104
30
0
10
-133.35671938264159
20
-35.400971839469989
30
0
10
-133.26923598500454
20
-32.885968518136835
30
0
10
-132.6415177625147
20
-29.490430688344436
30
0
10
-131.02675383556613
20
-25.688032656797116
30
0
10
-128.94057774038666
20
-23.581980623593516
30
0
10
-126.78593855554878
20
-22.894639298432089
30
0
10
-125.05189292900012
20
-22.90459021123986
30
0
10
-124.11040151982839
20
-23.026719753234886
30
0
0
SPLINE
5
132
100
AcDbEntity
8
0
100
AcDbSpline
70
12
71
2
41
1
41
0.57500653627712561
41
1
72
6
73
3
74
0
42
0.000000001
43
0.0000000001
44
0.0000000001
40
0
40
0
40
0
40
7.1862440706966035
40
7.1862440706966035
40
7.1862440706966035
10
-119.58391450346738
20
-8.202808045155459
30
0
10
-159.93932613009852
20
23.407926309883386
30
0
10
-127.16246051792176
20
58.098197162296046
30
0
0
SPLINE
5
133
100
AcDbEntity
8
0
100
AcDbSpline
70
4
71
5
72
21
73
15
74
0
42
0.000000001
43
0.0000000001
44
0.0000000001
40
0
40
0
40
0
40
0
40
0
40
0
40
0.10000000000000001
40
0.20000000000000001
40
0.30000000000000004
40
0.40000000000000002
40
0.5
40
0.59999999999999998
40
0.69999999999999996
40
0.79999999999999993
40
0.89999999999999991
40
1
40
1
40
1
40
1
40
1
40
1
41
1
41
1
41
1
41
1
41
1
41
1
41
1
41
1
41
1
41
1
41
1
41
1
41
1
41
1
41
1
10
-149.69658924760242
20
-43.649168442826763
30
0
10
-149.75974397512059
20
-42.543044535401798
30
0
10
-149.90052930364743
20
-40.098604998529154
30
0
10
-150.15537899716273
20
-35.73464328366471
30
0
10
-150.58184492493663
20
-28.504778044636474
30
0
10
-151.22923168202135
20
-17.077597931711232
30
0
10
-151.84282665203108
20
-3.5299713842517635
30
0
10
-152.17558805676822
20
11.565838265846494
30
0
10
-151.63309807342389
20
26.495564143965925
30
0
10
-149.80647083051883
20
39.909561279216838
30
0
10
-146.59284503463306
20
51.311988289737457
30
0
10
-142.90879794923319
20
58.667545328794446
30
0
10
-139.54433959278379
20
63.20773065849697
30
0
10
-137.03803043669194
20
65.80638533750529
30
0
10
-135.71906303560795
20
66.998747430933591
30
0
0
SPLINE
5
134
100
AcDbEntity
8
0
100
AcDbSpline
70
4
71
5
72
16
73
10
74
0
42
0.000000001
43
0.0000000001
44
0.0000000001
40
0
40
0
40
0
40
0
40
0
40
0
40
0.20000000000000001
40
0.40000000000000002
40
0.60000000000000009
40
0.80000000000000004
40
1
40
1
40
1
40
1
40
1
40
1
41
1
41
1
41
1
41
1
41
1
41
1
41
1
41
1
41
1
41
1
10
-109.49757169614179
20
59.401783001594417
30
0
10
-109.29185066946494
20
58.814811300151469
30
0
10
-108.76392056326321
20
57.832899730391496
30
0
10
-107.62291764387311
20
56.935535977297405
30
0
10
-105.53605527735498
20
56.667534666177133
30
0
10
-102.55747791078187
20
56.911502923520359
30
0
10
-100.37159460488186
20
56.727378691010529
30
0
10
-99.090243642719727
20
55.948898720375794
30
0
10
-98.436100423810657
20
55.073897741874625
30
0
10
-98.159104262906908
20
54.547300644771894
30
0
0
SPLINE
5
135
100
AcDbEntity
8
0
100
AcDbSpline
70
4
71
5
72
12
73
6
74
0
42
0.000000001
43
0.0000000001
44
0.0000000001
40
0
40
0
40
0
40
0
40
0
40
0
40
0.00027325686487078316
40
0.00027325686487078316
40
0.00027325686487078316
40
0.00027325686487078316
40
0.00027325686487078316
40
0.00027325686487078316
41
1
41
1
41
1
41
1
41
1
41
1
10
-105.97017356764751
20
-29.551878869601946
30
0
10
-105.97286316651513
20
-29.551878869601946
30
0
10
-105.97555214568148
20
-29.551878565363516
30
0
10
-105.97824050514734
20
-29.551877956887068
30
0
10
-105.98092824491358
20
-29.551877044173075
30
0
10
-105.98361536498112
20
-29.551875827222048
30
0
0
LINE
5
136
100
AcDbEntity
8
0
100
AcDbLine
10
-110.74820676469834
20
-71.221248918988337
30
0
11
-82.107619313982781
21
-62.108334730124298
31
0
0
SPLINE
5
137
100
AcDbEntity
8
0
100
AcDbSpline
70
0
71
3
72
26
73
22
74
0
42
0.000000001
43
0.0000000001
44
0.0000000001
40
0
40
0
40
0
40
0
40
0.14268362943965046
40
0.14268362943965046
40
0.14268362943965046
40
0.27792203268313603
40
0.27792203268313603
40
0.27792203268313603
40
0.44177346384559291
40
0.44177346384559291
40
0.44177346384559291
40
0.63887373996841013
40
0.63887373996841013
40
0.63887373996841013
40
0.81943686998420506
40
0.81943686998420506
40
0.81943686998420506
40
0.97507804355535033
40
0.97507804355535033
40
0.97507804355535033
40
1
40
1
40
1
40
1
10
-86.182157793928056
20
-22.983452440785509
30
0
10
-83.089836115136023
20
-22.983446712374977
30
0
10
-80.110337960027465
20
-23.502606653371394
30
0
10
-77.456148542468924
20
-24.6984128795572
30
0
10
-74.940454624771121
20
-25.831821983692635
30
0
10
-72.784084050960558
20
-27.576243830434628
30
0
10
-71.209232979941802
20
-29.603013537085538
30
0
10
-69.301183227316656
20
-32.058596486209574
30
0
10
-68.202673845456502
20
-34.852007705741215
30
0
10
-67.667893541747986
20
-37.653443418378409
30
0
10
-67.024595251472547
20
-41.023348390118606
30
0
10
-67.154480738466958
20
-44.468317830040512
30
0
10
-68.071757589159091
20
-47.834243324860182
30
0
10
-68.912072897235078
20
-50.917760277245847
30
0
10
-70.475216114931371
20
-53.961292743852582
30
0
10
-72.881605644976773
20
-56.499502992993385
30
0
10
-74.955856852810967
20
-58.687380561974521
30
0
10
-77.638603968104178
20
-60.436151658940211
30
0
10
-80.641372850727635
20
-61.593663656589527
30
0
10
-81.122189549734884
20
-61.779009622105448
30
0
10
-81.611213439040682
20
-61.950358145509085
30
0
10
-82.107573301627298
20
-62.10829184163677
30
0
0
SPLINE
5
138
100
AcDbEntity
8
0
100
AcDbSpline
70
0
71
3
72
17
73
13
74
0
42
0.000000001
43
0.0000000001
44
0.0000000001
40
0
40
0
40
0
40
0
40
0.27446149696229505
40
0.27446149696229505
40
0.27446149696229505
40
0.56878399046726125
40
0.56878399046726125
40
0.56878399046726125
40
0.80397516743232689
40
0.80397516743232689
40
0.80397516743232689
40
1
40
1
40
1
40
1
10
-68.652309668400903
20
12.561287370949676
30
0
10
-67.670050427606384
20
10.693915407680949
30
0
10
-67.087953032565252
20
8.6194379757820148
30
0
10
-66.935656126966563
20
6.6194711880939385
30
0
10
-66.772338483125765
20
4.4747797891384868
30
0
10
-67.027412292574638
20
2.3895559155977879
30
0
10
-67.78775779601429
20
0.30889941433737106
30
0
10
-68.395344908111966
20
-1.3537395690578817
30
0
10
-69.376737384571825
20
-3.0477187643254524
30
0
10
-70.837009411131802
20
-4.4872324504554841
30
0
10
-72.054102599760199
20
-5.6870241813520375
30
0
10
-73.592130884577401
20
-6.6564359897285801
30
0
10
-75.182445641554665
20
-7.2829335630732928
30
0
0
LINE
5
139
100
AcDbEntity
8
0
100
AcDbLine
10
-92.345886559447408
20
57.605120361620536
30
0
11
-68.652309668400903
21
12.561287370949676
31
0
0
SPLINE
5
140
100
AcDbEntity
8
0
100
AcDbSpline
70
0
71
3
72
17
73
13
74
0
42
0.000000001
43
0.0000000001
44
0.0000000001
40
0.51213220341649579
40
0.51213220341649579
40
0.51213220341649579
40
0.51213220341649579
40
0.69916467228067225
40
0.69916467228067225
40
0.69916467228067225
40
0.83331843757385671
40
0.83331843757385671
40
0.83331843757385671
40
0.96101289165731363
40
0.96101289165731363
40
0.96101289165731363
40
1
40
1
40
1
40
1
10
-103.92673841524143
20
63.365766604033197
30
0
10
-103.03032021914839
20
63.374053627227411
30
0
10
-101.80141461589761
20
63.419480978626474
30
0
10
-100.22021746819262
20
63.16415845354495
30
0
10
-99.086063851317064
20
62.981021919488256
30
0
10
-97.735314469619624
20
62.614033421211694
30
0
10
-96.389687347575148
20
61.844683008334314
30
0
10
-95.108850239694945
20
61.11237571336904
30
0
10
-93.898320417637379
20
59.997424994413677
30
0
10
-93.04330172483958
20
58.759359863498766
30
0
10
-92.782251183135216
20
58.381359270280093
30
0
10
-92.550481225912193
20
57.994075057207425
30
0
10
-92.345886559447422
20
57.605120361620578
30
0
0
LINE
5
141
100
AcDbEntity
8
0
100
AcDbLine
10
-105.88498243613947
20
68.953109051981571
30
0
11
-103.92673841524143
21
63.365766604033197
31
0
0
LINE
5
142
100
AcDbEntity
8
0
100
AcDbLine
10
-105.88498243613947
20
68.953109051981571
30
0
11
-87.560810796920663
21
70.929245209152228
31
0
0
SPLINE
5
143
100
AcDbEntity
8
0
100
AcDbSpline
70
0
71
3
72
14
73
10
74
0
42
0.000000001
43
0.0000000001
44
0.0000000001
40
0
40
0
40
0
40
0
40
0.23608277032316138
40
0.23608277032316138
40
0.23608277032316138
40
0.48781561804373347
40
0.48781561804373347
40
0.48781561804373347
40
1
40
1
40
1
40
1
10
-87.560810796920606
20
70.929245209152242
30
0
10
-87.121611467776887
20
70.976609842687353
30
0
10
-87.008994655452739
20
70.948516811092773
30
0
10
-86.738028539285324
20
70.860985988204021
30
0
10
-86.449099906478963
20
70.767652691246582
30
0
10
-85.960131335023405
20
70.529923194055741
30
0
10
-85.259241851563573
20
70.038972174386316
30
0
10
-83.833187801978426
20
69.040066203802354
30
0
10
-81.652545511569414
20
67.068676437673091
30
0
10
-79.241638394259141
20
65.316306023898221
30
0
0
LINE
5
144
100
AcDbEntity
8
0
100
AcDbLine
10
-43.861876285787822
20
39.600488139364003
30
0
11
-79.241638394259141
21
65.316306023898221
31
0
0
SPLINE
5
145
100
AcDbEntity
8
0
100
AcDbSpline
70
0
71
3
72
14
73
10
74
0
42
0.000000001
43
0.0000000001
44
0.0000000001
40
0
40
0
40
0
40
0
40
0.46535557016392265
40
0.46535557016392265
40
0.46535557016392265
40
0.81490787008291832
40
0.81490787008291832
40
0.81490787008291832
40
1
40
1
40
1
40
1
10
-25.00000037252903
20
34.431609522670108
30
0
10
-27.886460520683087
20
34.431609522670108
30
0
10
-30.721940856001915
20
34.686507636663407
30
0
10
-33.628160595268362
20
35.286558506924095
30
0
10
-35.811170446365068
20
35.737287315637253
30
0
10
-38.072911606494408
20
36.399285640390872
30
0
10
-40.340941058416284
20
37.495352449339521
30
0
10
-41.541889820785102
20
38.075732953907043
30
0
10
-42.736347084051005
20
38.782396036685356
30
0
10
-43.861876285787829
20
39.600488139364003
30
0
0
LINE
5
146
100
AcDbEntity
8
0
100
AcDbLine
10
-25.00000037252903
20
34.431609522670108
30
0
11
0
21
34.431609522670108
31
0
0
LINE
5
147
100
AcDbEntity
8
0
100
AcDbLine
10
-124.0870746128177
20
-80.698129119289845
30
0
11
-91.801321486556574
21
-76.011487536445486
31
0
0
SPLINE
5
148
100
AcDbEntity
8
0
100
AcDbSpline
70
0
71
3
72
14
73
10
74
0
42
0.000000001
43
0.0000000001
44
0.0000000001
40
0
40
0
40
0
40
0
40
0.44853186770190118
40
0.44853186770190118
40
0.44853186770190118
40
0.84495335488881507
40
0.84495335488881507
40
0.84495335488881507
40
1
40
1
40
1
40
1
10
-91.801321486556674
20
-76.011487536445486
30
0
10
-89.777984938171016
20
-75.717777392324962
30
0
10
-87.753633328928998
20
-75.249056183272515
30
0
10
-85.811966905518915
20
-74.638378530592391
30
0
10
-84.09588306261864
20
-74.098649336973168
30
0
10
-82.494936850002404
20
-73.460686564014949
30
0
10
-81.091747242535646
20
-72.722852594136029
30
0
10
-80.542937836071715
20
-72.434274186112319
30
0
10
-80.02056417031315
20
-72.129249794782922
30
0
10
-79.506244049532583
20
-71.795530632444382
30
0
0
LINE
5
149
100
AcDbEntity
8
0
100
AcDbLine
10
-79.506244049532597
20
-71.795530632444382
30
0
11
-45.397908085498642
21
-49.664167602345984
31
0
0
SPLINE
5
150
100
AcDbEntity
8
0
100
AcDbSpline
70
0
71
3
72
14
73
10
74
0
42
0.000000001
43
0.0000000001
44
0.0000000001
40
0
40
0
40
0
40
0
40
0.2953571989758782
40
0.2953571989758782
40
0.2953571989758782
40
0.69307090836747831
40
0.69307090836747831
40
0.69307090836747831
40
1
40
1
40
1
40
1
10
-45.397908085498663
20
-49.664167602345998
30
0
10
-43.171935613344736
20
-48.21983431888733
30
0
10
-40.769123694318843
20
-47.145538409860606
30
0
10
-38.466283761800206
20
-46.415665250668525
30
0
10
-35.365390961919985
20
-45.432853379029126
30
0
10
-32.446850529411691
20
-44.987941623017782
30
0
10
-29.630448300295456
20
-44.718951422707029
30
0
10
-27.456935651770415
20
-44.511362607210252
30
0
10
-25.323534784573436
20
-44.420709985418618
30
0
10
-23.172838937397096
20
-44.420709985418618
30
0
0
LINE
5
151
100
AcDbEntity
8
0
100
AcDbLine
10
0
20
-44.420709985418618
30
0
11
-23.172838937397096
21
-44.420709985418625
31
0
0
SPLINE
5
152
100
AcDbEntity
8
0
100
AcDbSpline
70
0
71
3
72
8
73
4
74
0
42
0.000000001
43
0.0000000001
44
0.0000000001
40
0
40
0
40
0
40
0
40
0.033035297077259718
40
0.033035297077259718
40
0.033035297077259718
40
0.033035297077259718
10
-130.36595923315355
20
-59.011379671793719
30
0
10
-130.30694619347616
20
-59.294642262245191
30
0
10
-130.24038623790909
20
-59.576201133004062
30
0
10
-130.16660066584808
20
-59.855549282077831
30
0
0
SPLINE
5
153
100
AcDbEntity
8
0
100
AcDbSpline
70
4
71
5
72
16
73
10
74
0
42
0.000000001
43
0.0000000001
44
0.0000000001
40
0
40
0
40
0
40
0
40
0
40
0
40
0.20000000000000001
40
0.40000000000000002
40
0.60000000000000009
40
0.80000000000000004
40
1
40
1
40
1
40
1
40
1
40
1
41
1
41
1
41
1
41
1
41
1
41
1
41
1
41
1
41
1
41
1
10
-124.0870746128177
20
-80.698129119289845
30
0
10
-126.31603177303512
20
-81.021687416740761
30
0
10
-129.83605717923629
20
-81.406170111673504
30
0
10
-132.30508494694396
20
-81.19575602143739
30
0
10
-130.85906466652722
20
-79.605509494621302
30
0
10
-124.56230141264149
20
-76.500240238778886
30
0
10
-118.45010346680732
20
-73.96108310627794
30
0
10
-114.30549065853653
20
-72.405723723614557
30
0
10
-111.87795778789598
20
-71.580715153642146
30
0
10
-110.74820676469834
20
-71.221248918988337
30
0
0
SPLINE
5
154
100
AcDbEntity
8
0
100
AcDbSpline
70
4
71
5
72
16
73
10
74
0
42
0.000000001
43
0.0000000001
44
0.0000000001
40
0
40
0
40
0
40
0
40
0
40
0
40
0.20000000000000001
40
0.40000000000000002
40
0.60000000000000009
40
0.80000000000000004
40
1
40
1
40
1
40
1
40
1
40
1
41
1
41
1
41
1
41
1
41
1
41
1
41
1
41
1
41
1
41
1
10
-86.182131328971323
20
-22.983487781324445
30
0
10
-88.374831017474918
20
-22.983487781324445
30
0
10
-91.898523745287434
20
-22.73138577536028
30
0
10
-94.601357252605723
20
-21.597672593002439
30
0
10
-93.82915991355533
20
-18.840065393360579
30
0
10
-88.553178886389773
20
-14.411809356129146
30
0
10
-83.016957098454469
20
-10.977499607076822
30
0
10
-78.96746618537756
20
-8.8846571845664535
30
0
10
-76.418884114902582
20
-7.7700231154678443
30
0
10
-75.182445641554665
20
-7.2829335630732928
30
0
0
LINE
5
155
100
AcDbEntity
8
0
100
AcDbLine
10
-90.608403934990989
20
-84.22936400278617
30
0
11
-107.94419804968713
21
-63.436196881040452
31
0
0
LINE
5
156
100
AcDbEntity
8
0
100
AcDbLine
10
-84.099179514373816
20
-55.849145528895306
30
0
11
-74.986265325509791
21
-78.761615489467772
31
0
0
LINE
5
157
100
AcDbEntity
8
0
100
AcDbLine
10
-94.93021240168153
20
48.408857875629124
30
0
11
-68.49326336498234
21
65.624007418281607
31
0
0
LINE
5
158
100
AcDbEntity
8
0
100
AcDbLine
10
-50.964852199180974
20
52.883463036920304
30
0
11
-83.774737099760173
21
27.20119603791051
31
0
0
CIRCLE
5
159
100
AcDbEntity
8
0
100
AcDbCircle
10
-57.167649202847421
20
-32.473338599929448
30
0
40
7.5999999999999996
210
0
220
0
230
1
0
LINE
5
160
100
AcDbEntity
8
0
100
AcDbLine
10
79.506244049532597
20
-71.795530632444382
30
0
11
45.397908085498642
21
-49.664167602345984
31
0
0
SPLINE
5
161
100
AcDbEntity
8
0
100
AcDbSpline
70
4
71
5
72
16
73
10
74
0
42
0.000000001
43
0.0000000001
44
0.0000000001
40
0
40
0
40
0
40
0
40
0
40
0
40
0.20000000000000001
40
0.40000000000000002
40
0.60000000000000009
40
0.80000000000000004
40
1
40
1
40
1
40
1
40
1
40
1
41
1
41
1
41
1
41
1
41
1
41
1
41
1
41
1
41
1
41
1
10
86.182131328971323
20
-22.983487781324445
30
0
10
88.374831017474918
20
-22.983487781324445
30
0
10
91.898523745287434
20
-22.73138577536028
30
0
10
94.601357252605737
20
-21.597672593002439
30
0
10
93.829159913555458
20
-18.840065393360565
30
0
10
88.553178886389944
20
-14.411809356129144
30
0
10
83.016957098454625
20
-10.977499607076833
30
0
10
78.96746618537756
20
-8.884657184566457
30
0
10
76.418884114902568
20
-7.7700231154678452
30
0
10
75.182445641554665
20
-7.2829335630732936
30
0
0
LINE
5
162
100
AcDbEntity
8
0
100
AcDbLine
10
74.986265325509791
20
-78.761615489467772
30
0
11
40.877929361475829
21
-56.630252459369373
31
0
0
SPLINE
5
163
100
AcDbEntity
8
0
100
AcDbSpline
70
4
71
5
72
16
73
10
74
0
42
0.000000001
43
0.0000000001
44
0.0000000001
40
0
40
0
40
0
40
0
40
0
40
0
40
0.20000000000000001
40
0.40000000000000002
40
0.60000000000000009
40
0.80000000000000004
40
1
40
1
40
1
40
1
40
1
40
1
41
1
41
1
41
1
41
1
41
1
41
1
41
1
41
1
41
1
41
1
10
88.26508314356883
20
77.459770605344332
30
0
10
87.609233119317764
20
77.530499529528271
30
0
10
86.346439722185991
20
77.556804977127982
30
0
10
84.598830057212808
20
77.251130771279421
30
0
10
82.514881225892793
20
76.260686935818157
30
0
10
80.13692225916455
20
74.462072530685276
30
0
10
78.278062821046717
20
72.874697130559539
30
0
10
76.849485231328515
20
71.722957665257724
30
0
10
75.873593101051682
20
70.988407971306472
30
0
10
75.379762108471326
20
70.6294663867927
30
0
0
LINE
5
164
100
AcDbEntity
8
0
100
AcDbLine
10
40
20
44.913648502258482
30
0
11
75.379762108471326
21
70.6294663867927
31
0
0
LINE
5
165
100
AcDbEntity
8
0
100
AcDbLine
10
110.74820676469834
20
-71.221248918988337
30
0
11
82.107619313982781
21
-62.108334730124298
31
0
0
SPLINE
5
166
100
AcDbEntity
8
0
100
AcDbSpline
70
0
71
3
72
14
73
10
74
0
42
0.000000001
43
0.0000000001
44
0.0000000001
40
0
40
0
40
0
40
0
40
0.2953571989758782
40
0.2953571989758782
40
0.2953571989758782
40
0.69307090836747831
40
0.69307090836747831
40
0.69307090836747831
40
1
40
1
40
1
40
1
10
45.397908085498663
20
-49.664167602345998
30
0
10
43.171935613344736
20
-48.21983431888733
30
0
10
40.769123694318843
20
-47.145538409860606
30
0
10
38.466283761800206
20
-46.415665250668525
30
0
10
35.365390961919985
20
-45.432853379029126
30
0
10
32.446850529411691
20
-44.987941623017782
30
0
10
29.630448300295456
20
-44.718951422707029
30
0
10
27.456935651770415
20
-44.511362607210252
30
0
10
25.323534784573436
20
-44.420709985418618
30
0
10
23.172838937397096
20
-44.420709985418618
30
0
0
LINE
5
167
100
AcDbEntity
8
0
100
AcDbLine
10
122.89415706125214
20
-88.916005585630543
30
0
11
90.608403934990989
21
-84.22936400278617
31
0
0
LINE
5
168
100
AcDbEntity
8
0
100
AcDbLine
10
0
20
-52.724717806999081
30
0
11
23.172838937397096
21
-52.724717806999081
31
0
0
SPLINE
5
169
100
AcDbEntity
8
0
100
AcDbSpline
70
4
71
5
72
16
73
10
74
0
42
0.000000001
43
0.0000000001
44
0.0000000001
40
0
40
0
40
0
40
0
40
0
40
0
40
0.20000000000000001
40
0.40000000000000002
40
0.60000000000000009
40
0.80000000000000004
40
1
40
1
40
1
40
1
40
1
40
1
41
1
41
1
41
1
41
1
41
1
41
1
41
1
41
1
41
1
41
1
10
25.00000037252903
20
41.000000610947609
30
0
10
25.634630714770125
20
41.000000610947609
30
0
10
26.901973983543247
20
41.026496743727222
30
0
10
28.797234020533288
20
41.145676099392659
30
0
10
31.30757996134184
20
41.457344642498995
30
0
10
34.379285050499902
20
42.128279751185012
30
0
10
36.733941724234306
20
42.967633723949312
30
0
10
38.408534455391269
20
43.834731830073899
30
0
10
39.4774345753181
20
44.533821265074863
30
0
10
40
20
44.913648502258482
30
0
0
SPLINE
5
170
100
AcDbEntity
8
0
100
AcDbSpline
70
4
71
5
72
12
73
6
74
0
42
0.000000001
43
0.0000000001
44
0.0000000001
40
0
40
0
40
0
40
0
40
0
40
0
40
0.00027325686487078316
40
0.00027325686487078316
40
0.00027325686487078316
40
0.00027325686487078316
40
0.00027325686487078316
40
0.00027325686487078316
41
1
41
1
41
1
41
1
41
1
41
1
10
105.97017356764751
20
-29.551878869601946
30
0
10
105.97286316651513
20
-29.551878869601946
30
0
10
105.97555214568148
20
-29.551878565363516
30
0
10
105.97824050514734
20
-29.551877956887068
30
0
10
105.98092824491358
20
-29.551877044173075
30
0
10
105.98361536498112
20
-29.551875827222048
30
0
0
LINE
5
171
100
AcDbEntity
8
0
100
AcDbLine
10
25.00000037252903
20
41.000000610947609
30
0
11
0
21
41.000000610947609
31
0
0
LINE
5
172
100
AcDbEntity
8
0
100
AcDbLine
10
90.608403934990989
20
-84.22936400278617
30
0
11
107.94419804968713
21
-63.436196881040452
31
0
0
SPLINE
5
173
100
AcDbEntity
8
0
100
AcDbSpline
70
0
71
3
72
14
73
10
74
0
42
0.000000001
43
0.0000000001
44
0.0000000001
40
0
40
0
40
0
40
0
40
0.46535557016392265
40
0.46535557016392265
40
0.46535557016392265
40
0.81490787008291832
40
0.81490787008291832
40
0.81490787008291832
40
1
40
1
40
1
40
1
10
25.00000037252903
20
34.431609522670108
30
0
10
27.886460520683087
20
34.431609522670108
30
0
10
30.721940856001915
20
34.686507636663407
30
0
10
33.628160595268362
20
35.286558506924095
30
0
10
35.811170446365068
20
35.737287315637253
30
0
10
38.072911606494408
20
36.399285640390872
30
0
10
40.340941058416284
20
37.495352449339521
30
0
10
41.541889820785102
20
38.075732953907043
30
0
10
42.736347084051005
20
38.782396036685356
30
0
10
43.861876285787829
20
39.600488139364003
30
0
0
LINE
5
174
100
AcDbEntity
8
0
100
AcDbLine
10
114.82271877968687
20
74.595711860272772
30
0
11
109.49757169614179
21
59.401783001594417
31
0
0
LINE
5
175
100
AcDbEntity
8
0
100
AcDbLine
10
94.93021240168153
20
48.408857875629124
30
0
11
68.49326336498234
21
65.624007418281593
31
0
0
LINE
5
176
100
AcDbEntity
8
0
100
AcDbLine
10
43.861876285787822
20
39.600488139363996
30
0
11
79.241638394259141
21
65.316306023898221
31
0
0
LINE
5
177
100
AcDbEntity
8
0
100
AcDbLine
10
25.00000037252903
20
34.431609522670108
30
0
11
0
21
34.431609522670108
31
0
0
SPLINE
5
178
100
AcDbEntity
8
0
100
AcDbSpline
70
4
71
5
72
16
73
10
74
0
42
0.000000001
43
0.0000000001
44
0.0000000001
40
0
40
0
40
0
40
0
40
0
40
0
40
0.20000000000000001
40
0.40000000000000002
40
0.60000000000000009
40
0.80000000000000004
40
1
40
1
40
1
40
1
40
1
40
1
41
1
41
1
41
1
41
1
41
1
41
1
41
1
41
1
41
1
41
1
10
74.465527371860418
20
9.5034676541010654
30
0
10
74.212275506326378
20
9.0220108108330273
30
0
10
73.78876149863639
20
8.0485204541588189
30
0
10
73.402261762193802
20
6.5566086415011595
30
0
10
73.338403653351506
20
4.534580731255712
30
0
10
73.919159266110071
20
2.1249249291287646
30
0
10
74.942829230293938
20
0.48195192318117408
30
0
10
76.097745253604018
20
-0.47270368636017629
30
0
10
77.060405767292025
20
-0.963046744519792
30
0
10
77.589955093756657
20
-1.1716603957110827
30
0
0
SPLINE
5
179
100
AcDbEntity
8
0
100
AcDbSpline
70
0
71
3
72
17
73
13
74
0
42
0.000000001
43
0.0000000001
44
0.0000000001
40
0
40
0
40
0
40
0
40
0.27446149696229505
40
0.27446149696229505
40
0.27446149696229505
40
0.56878399046726125
40
0.56878399046726125
40
0.56878399046726125
40
0.80397516743232689
40
0.80397516743232689
40
0.80397516743232689
40
1
40
1
40
1
40
1
10
68.652309668400903
20
12.561287370949676
30
0
10
67.670050427606384
20
10.693915407680949
30
0
10
67.087953032565252
20
8.6194379757820148
30
0
10
66.935656126966563
20
6.6194711880939385
30
0
10
66.772338483125765
20
4.4747797891384868
30
0
10
67.027412292574638
20
2.3895559155977879
30
0
10
67.78775779601429
20
0.30889941433737106
30
0
10
68.395344908111966
20
-1.3537395690578817
30
0
10
69.376737384571825
20
-3.0477187643254524
30
0
10
70.837009411131802
20
-4.4872324504554841
30
0
10
72.054102599760199
20
-5.6870241813520375
30
0
10
73.592130884577401
20
-6.6564359897285801
30
0
10
75.182445641554665
20
-7.2829335630732928
30
0
0
LINE
5
180
100
AcDbEntity
8
0
100
AcDbLine
10
105.88498243613947
20
68.953109051981571
30
0
11
87.560810796920663
21
70.929245209152214
31
0
0
LINE
5
181
100
AcDbEntity
8
0
100
AcDbLine
10
124.0870746128177
20
-80.698129119289845
30
0
11
91.801321486556574
21
-76.011487536445486
31
0
0
LINE
5
182
100
AcDbEntity
8
0
100
AcDbLine
10
114.82271877968687
20
74.595711860272772
30
0
11
88.26508314356883
21
77.459770605344318
31
0
0
LINE
5
183
100
AcDbEntity
8
0
100
AcDbLine
10
0
20
-44.420709985418618
30
0
11
23.172838937397096
21
-44.420709985418625
31
0
0
LINE
5
184
100
AcDbEntity
8
0
100
AcDbLine
10
112.73976696508937
20
-64.962059717759345
30
0
11
84.099179514373816
21
-55.849145528895306
31
0
0
LINE
5
185
100
AcDbEntity
8
0
100
AcDbLine
10
98.159104262906908
20
54.547300644771894
30
0
11
74.465527371860418
21
9.5034676541010654
31
0
0
SPLINE
5
186
100
AcDbEntity
8
0
100
AcDbSpline
70
0
71
3
72
17
73
13
74
0
42
0.000000001
43
0.0000000001
44
0.0000000001
40
0.51213220341649579
40
0.51213220341649579
40
0.51213220341649579
40
0.51213220341649579
40
0.69916467228067225
40
0.69916467228067225
40
0.69916467228067225
40
0.83331843757385671
40
0.83331843757385671
40
0.83331843757385671
40
0.96101289165731363
40
0.96101289165731363
40
0.96101289165731363
40
1
40
1
40
1
40
1
10
103.92673841524143
20
63.365766604033197
30
0
10
103.03032021914839
20
63.374053627227411
30
0
10
101.80141461589761
20
63.419480978626474
30
0
10
100.22021746819262
20
63.16415845354495
30
0
10
99.086063851317064
20
62.981021919488256
30
0
10
97.735314469619624
20
62.614033421211694
30
0
10
96.389687347575148
20
61.844683008334314
30
0
10
95.108850239694945
20
61.11237571336904
30
0
10
93.898320417637379
20
59.997424994413677
30
0
10
93.04330172483958
20
58.759359863498766
30
0
10
92.782251183135216
20
58.381359270280093
30
0
10
92.550481225912193
20
57.994075057207425
30
0
10
92.345886559447422
20
57.605120361620578
30
0
0
SPLINE
5
187
100
AcDbEntity
8
0
100
AcDbSpline
70
4
71
5
72
16
73
10
74
0
42
0.000000001
43
0.0000000001
44
0.0000000001
40
0
40
0
40
0
40
0
40
0
40
0
40
0.20000000000000001
40
0.40000000000000002
40
0.60000000000000009
40
0.80000000000000004
40
1
40
1
40
1
40
1
40
1
40
1
41
1
41
1
41
1
41
1
41
1
41
1
41
1
41
1
41
1
41
1
10
105.97017356764751
20
-29.551878869601946
30
0
10
107.16538033051761
20
-29.551878869601946
30
0
10
109.57375272342988
20
-29.678935737996973
30
0
10
113.24001891390216
20
-30.250401395323369
30
0
10
118.11664907171522
20
-31.714597716000007
30
0
10
123.46116197841752
20
-34.646375020310039
30
0
10
126.28230813611364
20
-38.006620069953989
30
0
10
127.03521925071723
20
-41.265464071415778
30
0
10
126.8236504938493
20
-43.809244245235789
30
0
10
126.53932273679777
20
-45.174017479083162
30
0
0
LINE
5
188
100
AcDbEntity
8
0
100
AcDbLine
10
50.964852199180974
20
52.883463036920304
30
0
11
83.774737099760173
21
27.201196037910513
31
0
0
LINE
5
189
100
AcDbEntity
8
0
100
AcDbLine
10
105.88498243613947
20
68.953109051981571
30
0
11
103.92673841524143
21
63.365766604033205
31
0
0
LINE
5
190
100
AcDbEntity
8
0
100
AcDbLine
10
92.345886559447408
20
57.605120361620536
30
0
11
68.652309668400903
21
12.561287370949676
31
0
0
LINE
5
191
100
AcDbEntity
8
0
100
AcDbLine
10
123.93563296855091
20
-57.671728366668148
30
0
11
148.85443069542967
21
-66.405233984271831
31
0
0
SPLINE
5
192
100
AcDbEntity
8
0
100
AcDbSpline
70
4
71
5
72
16
73
10
74
0
42
0.000000001
43
0.0000000001
44
0.0000000001
40
0
40
0
40
0
40
0
40
0
40
0
40
0.20000000000000001
40
0.40000000000000002
40
0.60000000000000009
40
0.80000000000000004
40
1
40
1
40
1
40
1
40
1
40
1
41
1
41
1
41
1
41
1
41
1
41
1
41
1
41
1
41
1
41
1
10
145.70251193917838
20
-73.640483962033812
30
0
10
145.16606268611187
20
-74.721808372665208
30
0
10
144.00371693475864
20
-76.822272682818578
30
0
10
141.99207869071347
20
-79.786511989158143
30
0
10
138.83094315663067
20
-83.355522334496413
30
0
10
134.23009002193081
20
-86.953926878634377
30
0
10
130.05703227339126
20
-88.765600277380528
30
0
10
126.61113877865861
20
-89.239065385003954
30
0
10
124.15898651464025
20
-89.09960986112236
30
0
10
122.89415706125214
20
-88.916005585630543
30
0
0
LINE
5
193
100
AcDbEntity
8
0
100
AcDbLine
10
111.02316700552552
20
63.754674336659392
30
0
11
127.16246051792176
21
58.098197162296046
31
0
0
SPLINE
5
194
100
AcDbEntity
8
0
100
AcDbSpline
70
4
71
5
72
16
73
10
74
0
42
0.000000001
43
0.0000000001
44
0.0000000001
40
0
40
0
40
0
40
0
40
0
40
0
40
0.20000000000000001
40
0.40000000000000002
40
0.60000000000000009
40
0.80000000000000004
40
1
40
1
40
1
40
1
40
1
40
1
41
1
41
1
41
1
41
1
41
1
41
1
41
1
41
1
41
1
41
1
10
133.1234949957331
20
-37.840653387798632
30
0
10
133.23179953163853
20
-37.034612849708104
30
0
10
133.35671938264159
20
-35.400971839469989
30
0
10
133.26923598500454
20
-32.885968518136835
30
0
10
132.6415177625147
20
-29.490430688344436
30
0
10
131.02675383556613
20
-25.688032656797116
30
0
10
128.94057774038666
20
-23.581980623593516
30
0
10
126.78593855554878
20
-22.894639298432089
30
0
10
125.05189292900012
20
-22.90459021123986
30
0
10
124.11040151982839
20
-23.026719753234886
30
0
0
SPLINE
5
195
100
AcDbEntity
8
0
100
AcDbSpline
70
4
71
5
72
16
73
10
74
0
42
0.000000001
43
0.0000000001
44
0.0000000001
40
0
40
0
40
0
40
0
40
0
40
0
40
0.20000000000000001
40
0.40000000000000002
40
0.60000000000000009
40
0.80000000000000004
40
1
40
1
40
1
40
1
40
1
40
1
41
1
41
1
41
1
41
1
41
1
41
1
41
1
41
1
41
1
41
1
10
124.0870746128177
20
-80.698129119289845
30
0
10
126.31603177303512
20
-81.021687416740761
30
0
10
129.83605717923629
20
-81.406170111673504
30
0
10
132.30508494694396
20
-81.19575602143739
30
0
10
130.85906466652722
20
-79.605509494621302
30
0
10
124.56230141264149
20
-76.500240238778886
30
0
10
118.45010346680732
20
-73.96108310627794
30
0
10
114.30549065853653
20
-72.405723723614557
30
0
10
111.87795778789598
20
-71.580715153642146
30
0
10
110.74820676469834
20
-71.221248918988337
30
0
0
LINE
5
196
100
AcDbEntity
8
0
100
AcDbLine
10
119.58391450346738
20
-8.2028080451554608
30
0
11
101.16827943714873
21
-13.826029140050498
31
0
0
CIRCLE
5
197
100
AcDbEntity
8
0
100
AcDbCircle
10
57.167649202847421
20
-32.473338599929448
30
0
40
7.5999999999999996
210
0
220
0
230
1
0
SPLINE
5
198
100
AcDbEntity
8
0
100
AcDbSpline
70
4
71
5
72
16
73
10
74
0
42
0.000000001
43
0.0000000001
44
0.0000000001
40
0
40
0
40
0
40
0
40
0
40
0
40
0.20000000000000001
40
0.40000000000000002
40
0.60000000000000009
40
0.80000000000000004
40
1
40
1
40
1
40
1
40
1
40
1
41
1
41
1
41
1
41
1
41
1
41
1
41
1
41
1
41
1
41
1
10
90.608403934990989
20
-84.22936400278617
30
0
10
89.944496246011624
20
-84.132990305998845
30
0
10
88.622767491400708
20
-83.915846142489855
30
0
10
86.658422849074697
20
-83.516994667286355
30
0
10
84.075126172491608
20
-82.849786158781583
30
0
10
80.916661114672038
20
-81.799641348547169
30
0
10
78.470017640464945
20
-80.756518080175951
30
0
10
76.699359400345358
20
-79.824861108219494
30
0
10
75.551810229781324
20
-79.128572106743192
30
0
10
74.986265325509791
20
-78.761615489467772
30
0
0
SPLINE
5
199
100
AcDbEntity
8
0
100
AcDbSpline
70
4
71
5
72
16
73
10
74
0
42
0.000000001
43
0.0000000001
44
0.0000000001
40
0
40
0
40
0
40
0
40
0
40
0
40
0.20000000000000001
40
0.40000000000000002
40
0.60000000000000009
40
0.80000000000000004
40
1
40
1
40
1
40
1
40
1
40
1
41
1
41
1
41
1
41
1
41
1
41
1
41
1
41
1
41
1
41
1
10
86.182131328971323
20
-29.551878869601946
30
0
10
84.179613456549717
20
-29.551878869601946
30
0
10
80.617907228969088
20
-30.007808045844587
30
0
10
76.604251154531411
20
-32.058117170090014
30
0
10
73.640081912549789
20
-37.025040890682902
30
0
10
73.264283156186835
20
-44.843153980509456
30
0
10
75.59888654824438
20
-50.610852130768869
30
0
10
79.095484092114631
20
-53.796144669705029
30
0
10
82.287648226192232
20
-55.272749209928442
30
0
10
84.099179514373816
20
-55.849145528895306
30
0
0
SPLINE
5
200
100
AcDbEntity
8
0
100
AcDbSpline
70
12
71
2
41
1
41
0.46899826070605932
41
1
72
6
73
3
74
0
42
0.000000001
43
0.0000000001
44
0.0000000001
40
0
40
0
40
0
40
14.511155218617935
40
14.511155218617935
40
14.511155218617935
10
145.70251193917838
20
-73.640483962033812
30
0
10
190.04759892945634
20
15.746209709468877
30
0
10
145.93468516949397
20
68.681706221423724
30
0
0
SPLINE
5
201
100
AcDbEntity
8
0
100
AcDbSpline
70
0
71
3
72
8
73
4
74
0
42
0.000000001
43
0.0000000001
44
0.0000000001
40
0
40
0
40
0
40
0
40
0.033035297077259718
40
0.033035297077259718
40
0.033035297077259718
40
0.033035297077259718
10
130.36595923315355
20
-59.011379671793719
30
0
10
130.30694619347616
20
-59.294642262245191
30
0
10
130.24038623790909
20
-59.576201133004062
30
0
10
130.16660066584808
20
-59.855549282077831
30
0
0
LINE
5
202
100
AcDbEntity
8
0
100
AcDbLine
10
133.1234949957331
20
-37.840653387798632
30
0
11
130.16549120369785
21
-59.855160428273692
31
0
0
SPLINE
5
203
100
AcDbEntity
8
0
100
AcDbSpline
70
0
71
3
72
26
73
22
74
0
42
0.000000001
43
0.0000000001
44
0.0000000001
40
0
40
0
40
0
40
0
40
0.14268362943965046
40
0.14268362943965046
40
0.14268362943965046
40
0.27792203268313603
40
0.27792203268313603
40
0.27792203268313603
40
0.44177346384559291
40
0.44177346384559291
40
0.44177346384559291
40
0.63887373996841013
40
0.63887373996841013
40
0.63887373996841013
40
0.81943686998420506
40
0.81943686998420506
40
0.81943686998420506
40
0.97507804355535033
40
0.97507804355535033
40
0.97507804355535033
40
1
40
1
40
1
40
1
10
86.182131328971323
20
-22.983487781324445
30
0
10
83.089809650173976
20
-22.983487781324445
30
0
10
80.110312456794972
20
-23.502653241729135
30
0
10
77.456125254427391
20
-24.698464384699754
30
0
10
74.940433436331986
20
-25.831878149062362
30
0
10
72.784066094001517
20
-27.576303990397399
30
0
10
71.209218777500723
20
-29.603076614397679
30
0
10
69.301173573754639
20
-32.058663098108482
30
0
10
68.202669366586434
20
-34.852076352582976
30
0
10
67.667894252433967
20
-37.653513055875919
30
0
10
67.024602204782852
20
-41.023419219296422
30
0
10
67.154494073454401
20
-44.468388418604391
30
0
10
68.071777159396362
20
-47.834312214197141
30
0
10
68.912098179571004
20
-50.917827609924764
30
0
10
70.475247035294956
20
-53.961357180861782
30
0
10
72.881641267276024
20
-56.499562972251411
30
0
10
74.955896528068223
20
-58.687436698755832
30
0
10
77.638646882890043
20
-60.436202826029579
30
0
10
80.641417909756129
20
-61.593709261159582
30
0
10
81.122234952109039
20
-61.779054335980199
30
0
10
81.611259158830748
20
-61.950401953485027
30
0
10
82.107619313982795
20
-62.108334730124312
30
0
0
LINE
5
204
100
AcDbEntity
8
0
100
AcDbLine
10
84.099179514373816
20
-55.849145528895306
30
0
11
74.986265325509791
21
-78.761615489467772
31
0
0
LINE
5
205
100
AcDbEntity
8
0
100
AcDbLine
10
135.71906303560795
20
66.998747430933605
30
0
11
113.91892888747238
21
72.016981336954018
31
0
0
SPLINE
5
206
100
AcDbEntity
8
0
100
AcDbSpline
70
0
71
3
72
14
73
10
74
0
42
0.000000001
43
0.0000000001
44
0.0000000001
40
0
40
0
40
0
40
0
40
0.44853186770190118
40
0.44853186770190118
40
0.44853186770190118
40
0.84495335488881507
40
0.84495335488881507
40
0.84495335488881507
40
1
40
1
40
1
40
1
10
91.801321486556674
20
-76.011487536445486
30
0
10
89.777984938171016
20
-75.717777392324962
30
0
10
87.753633328928998
20
-75.249056183272515
30
0
10
85.811966905518915
20
-74.638378530592391
30
0
10
84.09588306261864
20
-74.098649336973168
30
0
10
82.494936850002404
20
-73.460686564014949
30
0
10
81.091747242535646
20
-72.722852594136029
30
0
10
80.542937836071715
20
-72.434274186112319
30
0
10
80.02056417031315
20
-72.129249794782922
30
0
10
79.506244049532583
20
-71.795530632444382
30
0
0
SPLINE
5
207
100
AcDbEntity
8
0
100
AcDbSpline
70
12
71
2
41
1
41
0.57500653627712561
41
1
72
6
73
3
74
0
42
0.000000001
43
0.0000000001
44
0.0000000001
40
0
40
0
40
0
40
7.1862440706966035
40
7.1862440706966035
40
7.1862440706966035
10
119.58391450346738
20
-8.2028080451554608
30
0
10
159.93932613009852
20
23.407926309883393
30
0
10
127.16246051792176
20
58.098197162296046
30
0
0
LINE
5
208
100
AcDbEntity
8
0
100
AcDbLine
10
123.93563296855091
20
-57.671728366668148
30
0
11
126.53932273679777
21
-45.174017479083162
31
0
0
SPLINE
5
209
100
AcDbEntity
8
0
100
AcDbSpline
70
4
71
5
72
16
73
10
74
0
42
0.000000001
43
0.0000000001
44
0.0000000001
40
0
40
0
40
0
40
0
40
0
40
0
40
0.20000000000000001
40
0.40000000000000002
40
0.60000000000000009
40
0.80000000000000004
40
1
40
1
40
1
40
1
40
1
40
1
41
1
41
1
41
1
41
1
41
1
41
1
41
1
41
1
41
1
41
1
10
114.82271877968687
20
74.595711860272772
30
0
10
116.08509484397635
20
74.459573265104297
30
0
10
118.65113079822095
20
74.269437669277337
30
0
10
122.62388053306053
20
74.230331317569011
30
0
10
128.09583884369889
20
74.510690268504462
30
0
10
134.8588068388778
20
74.580398556546911
30
0
10
139.83272385363642
20
73.54299257209621
30
0
10
143.09957116488096
20
71.636142582835348
30
0
10
145.03079853618885
20
69.766370181389846
30
0
10
145.93468516949397
20
68.68170622142371
30
0
0
LINE
5
210
100
AcDbEntity
8
0
100
AcDbLine
10
142.50144556296965
20
-64.178648578706913
30
0
11
149.69658924760242
21
-43.649168442826763
31
0
0
SPLINE
5
211
100
AcDbEntity
8
0
100
AcDbSpline
70
4
71
5
72
16
73
10
74
0
42
0.000000001
43
0.0000000001
44
0.0000000001
40
0
40
0
40
0
40
0
40
0
40
0
40
0.20000000000000001
40
0.40000000000000002
40
0.60000000000000009
40
0.80000000000000004
40
1
40
1
40
1
40
1
40
1
40
1
41
1
41
1
41
1
41
1
41
1
41
1
41
1
41
1
41
1
41
1
10
123.93563296855091
20
-57.671728366668148
30
0
10
123.80107963774162
20
-58.317584354552707
30
0
10
123.44431115281209
20
-59.548307405620299
30
0
10
122.64640594442068
20
-61.211549453408587
30
0
10
121.12641324537611
20
-63.079043706575114
30
0
10
118.6984121034491
20
-64.777798258321127
30
0
10
116.46454987825557
20
-65.461400687688524
30
0
10
114.65483654710752
20
-65.446645118395978
30
0
10
113.38816258637502
20
-65.168367415441139
30
0
10
112.73976696508937
20
-64.962059717759345
30
0
0
SPLINE
5
212
100
AcDbEntity
8
0
100
AcDbSpline
70
4
71
5
72
16
73
10
74
0
42
0.000000001
43
0.0000000001
44
0.0000000001
40
0
40
0
40
0
40
0
40
0
40
0
40
0.20000000000000001
40
0.40000000000000002
40
0.60000000000000009
40
0.80000000000000004
40
1
40
1
40
1
40
1
40
1
40
1
41
1
41
1
41
1
41
1
41
1
41
1
41
1
41
1
41
1
41
1
10
40.877929361475829
20
-56.630252459369373
30
0
10
40.241225963307755
20
-56.217124300252685
30
0
10
38.946443461955795
20
-55.463915371350403
30
0
10
36.940200766052378
20
-54.553048847931564
30
0
10
34.155167269995239
20
-53.717639210770599
30
0
10
30.554751688233395
20
-53.105199410995027
30
0
10
27.620310758494263
20
-52.843739424638308
30
0
10
25.402304358633486
20
-52.746364579271081
30
0
10
23.917085598199314
20
-52.724717806999081
30
0
10
23.172838937397096
20
-52.724717806999081
30
0
0
LINE
5
213
100
AcDbEntity
8
0
100
AcDbLine
10
100
20
-10
30
0
11
77.589955093756657
21
-1.1716603957110827
31
0
0
LINE
5
214
100
AcDbEntity
8
0
100
AcDbLine
10
104.74478238957087
20
-25.5388129829641
30
0
11
124.11040151982839
21
-23.026719753234886
31
0
0
LINE
5
215
100
AcDbEntity
8
0
100
AcDbLine
10
105.97017356764751
20
-29.551878869601946
30
0
11
100
21
-10
31
0
0
SPLINE
5
216
100
AcDbEntity
8
0
100
AcDbSpline
70
4
71
5
72
21
73
15
74
0
42
0.000000001
43
0.0000000001
44
0.0000000001
40
0
40
0
40
0
40
0
40
0
40
0
40
0.10000000000000001
40
0.20000000000000001
40
0.30000000000000004
40
0.40000000000000002
40
0.5
40
0.59999999999999998
40
0.69999999999999996
40
0.79999999999999993
40
0.89999999999999991
40
1
40
1
40
1
40
1
40
1
40
1
41
1
41
1
41
1
41
1
41
1
41
1
41
1
41
1
41
1
41
1
41
1
41
1
41
1
41
1
41
1
10
149.69658924760242
20
-43.649168442826763
30
0
10
149.75974397512059
20
-42.543044535401798
30
0
10
149.90052930364743
20
-40.098604998529154
30
0
10
150.15537899716273
20
-35.73464328366471
30
0
10
150.58184492493663
20
-28.504778044636474
30
0
10
151.22923168202135
20
-17.077597931711232
30
0
10
151.84282665203108
20
-3.5299713842517635
30
0
10
152.17558805676822
20
11.565838265846494
30
0
10
151.63309807342389
20
26.495564143965925
30
0
10
149.80647083051883
20
39.909561279216838
30
0
10
146.59284503463306
20
51.311988289737457
30
0
10
142.90879794923319
20
58.667545328794446
30
0
10
139.54433959278379
20
63.20773065849697
30
0
10
137.03803043669194
20
65.80638533750529
30
0
10
135.71906303560795
20
66.998747430933591
30
0
0
SPLINE
5
217
100
AcDbEntity
8
0
100
AcDbSpline
70
4
71
5
72
16
73
10
74
0
42
0.000000001
43
0.0000000001
44
0.0000000001
40
0
40
0
40
0
40
0
40
0
40
0
40
0.20000000000000001
40
0.40000000000000002
40
0.60000000000000009
40
0.80000000000000004
40
1
40
1
40
1
40
1
40
1
40
1
41
1
41
1
41
1
41
1
41
1
41
1
41
1
41
1
41
1
41
1
10
109.49757169614179
20
59.401783001594417
30
0
10
109.29185066946494
20
58.814811300151469
30
0
10
108.76392056326321
20
57.832899730391496
30
0
10
107.62291764387311
20
56.935535977297405
30
0
10
105.53605527735498
20
56.667534666177133
30
0
10
102.55747791078187
20
56.911502923520359
30
0
10
100.37159460488186
20
56.727378691010529
30
0
10
99.090243642719727
20
55.948898720375794
30
0
10
98.436100423810657
20
55.073897741874625
30
0
10
98.159104262906908
20
54.547300644771894
30
0
0
SPLINE
5
218
100
AcDbEntity
8
0
100
AcDbSpline
70
0
71
3
72
14
73
10
74
0
42
0.000000001
43
0.0000000001
44
0.0000000001
40
0
40
0
40
0
40
0
40
0.23608277032316138
40
0.23608277032316138
40
0.23608277032316138
40
0.48781561804373347
40
0.48781561804373347
40
0.48781561804373347
40
1
40
1
40
1
40
1
10
87.560810796920606
20
70.929245209152242
30
0
10
87.121611467776887
20
70.976609842687353
30
0
10
87.008994655452739
20
70.948516811092773
30
0
10
86.738028539285324
20
70.860985988204021
30
0
10
86.449099906478963
20
70.767652691246582
30
0
10
85.960131335023405
20
70.529923194055741
30
0
10
85.259241851563573
20
70.038972174386316
30
0
10
83.833187801978426
20
69.040066203802354
30
0
10
81.652545511569414
20
67.068676437673091
30
0
10
79.241638394259141
20
65.316306023898221
30
0
0
LINE
5
219
100
AcDbEntity
8
0
100
AcDbLine
10
105.97017356764751
20
-29.551878869601946
30
0
11
86.182131328971323
21
-29.551878869601946
31
0
0
LWPOLYLINE
5
220
100
AcDbEntity
8
0
100
AcDbPolyline
90
4
70
1
43
0.0
10
-43.000000670552254
20
-5.000000074505806
10
-48.00000074505806
20
-5.000000074505806
10
-48.00000074505806
20
-10.000000149011612
10
-43.000000670552254
20
-10.000000149011612
0
LWPOLYLINE
5
221
100
AcDbEntity
8
0
100
AcDbPolyline
90
4
70
1
43
0.0
10
-41.000000640749931
20
-12.000000178813934
10
-46.000000640749931
20
-12.000000178813934
10
-46.000000640749931
20
-17.000000178813934
10
-41.000000640749931
20
-17.000000178813934
0
LWPOLYLINE
5
222
100
AcDbEntity
8
0
100
AcDbPolyline
90
4
70
1
43
0.0
10
-39.000000610947609
20
-19.000000283122063
10
-44.000000610947609
20
-19.000000283122063
10
-44.000000610947609
20
-24.000000283122063
10
-39.000000610947609
20
-24.000000283122063
0
LWPOLYLINE
5
223
100
AcDbEntity
8
0
100
AcDbPolyline
90
4
70
1
43
0.0
10
-37.000000581145287
20
-26.000000387430191
10
-42.000000581145287
20
-26.000000387430191
10
-42.000000581145287
20
-31.000000387430191
10
-37.000000581145287
20
-31.000000387430191
0
LWPOLYLINE
5
224
100
AcDbEntity
8
0
100
AcDbPolyline
90
4
70
1
43
0.0
10
-34.000000536441803
20
-32.000000476837158
10
-39.000000536441803
20
-32.000000476837158
10
-39.000000536441803
20
-37.000000476837158
10
-34.000000536441803
20
-37.000000476837158
0
LWPOLYLINE
5
225
100
AcDbEntity
8
0
100
AcDbPolyline
90
4
70
1
43
0.0
10
-31.000000491738319
20
-34.000000506639481
10
-26.000000491738319
20
-34.000000506639481
10
-26.000000491738319
20
-39.000000506639481
10
-31.000000491738319
20
-39.000000506639481
0
LWPOLYLINE
5
226
100
AcDbEntity
8
0
100
AcDbPolyline
90
4
70
1
43
0.0
10
-23.00000037252903
20
-34.000000506639481
10
-18.00000037252903
20
-34.000000506639481
10
-18.00000037252903
20
-39.000000506639481
10
-23.00000037252903
20
-39.000000506639481
0
LWPOLYLINE
5
227
100
AcDbEntity
8
0
100
AcDbPolyline
90
4
70
1
43
0.0
10
-15.000000253319739
20
-34.000000506639481
10
-10.000000253319739
20
-34.000000506639481
10
-10.000000253319739
20
-39.000000506639481
10
-15.000000253319739
20
-39.000000506639481
0
LWPOLYLINE
5
228
100
AcDbEntity
8
0
100
AcDbPolyline
90
4
70
1
43
0.0
10
-7.000000134110449
20
-34.000000506639481
10
-2.000000134110449
20
-34.000000506639481
10
-2.000000134110449
20
-39.000000506639481
10
-7.000000134110449
20
-39.000000506639481
0
LWPOLYLINE
5
229
100
AcDbEntity
8
0
100
AcDbPolyline
90
4
70
1
43
0.0
10
31.000000491738319
20
-34.000000506639481
10
26.000000491738319
20
-34.000000506639481
10
26.000000491738319
20
-39.000000506639481
10
31.000000491738319
20
-39.000000506639481
0
LWPOLYLINE
5
230
100
AcDbEntity
8
0
100
AcDbPolyline
90
4
70
1
43
0.0
10
42.000000581145287
20
-31.000000387430191
10
37.000000581145287
20
-31.000000387430191
10
37.000000581145287
20
-26.000000387430191
10
42.000000581145287
20
-26.000000387430191
0
LWPOLYLINE
5
231
100
AcDbEntity
8
0
100
AcDbPolyline
90
4
70
1
43
0.0
10
23.00000037252903
20
-34.000000506639481
10
18.00000037252903
20
-34.000000506639481
10
18.00000037252903
20
-39.000000506639481
10
23.00000037252903
20
-39.000000506639481
0
LWPOLYLINE
5
232
100
AcDbEntity
8
0
100
AcDbPolyline
90
4
70
1
43
0.0
10
39.000000610947609
20
-19.000000283122063
10
44.000000610947609
20
-19.000000283122063
10
44.000000610947609
20
-24.000000283122063
10
39.000000610947609
20
-24.000000283122063
0
LWPOLYLINE
5
233
100
AcDbEntity
8
0
100
AcDbPolyline
90
4
70
1
43
0.0
10
46.000000640749931
20
-12.000000178813934
10
46.000000640749931
20
-17.000000178813934
10
41.000000640749931
20
-17.000000178813934
10
41.000000640749931
20
-12.000000178813934
0
LWPOLYLINE
5
234
100
AcDbEntity
8
0
100
AcDbPolyline
90
4
70
1
43
0.0
10
39.000000536441803
20
-37.000000476837158
10
34.000000536441803
20
-37.000000476837158
10
34.000000536441803
20
-32.000000476837158
10
39.000000536441803
20
-32.000000476837158
0
LWPOLYLINE
5
235
100
AcDbEntity
8
0
100
AcDbPolyline
90
4
70
1
43
0.0
10
15.000000253319739
20
-34.000000506639481
10
10.000000253319739
20
-34.000000506639481
10
10.000000253319739
20
-39.000000506639481
10
15.000000253319739
20
-39.000000506639481
0
LWPOLYLINE
5
236
100
AcDbEntity
8
0
100
AcDbPolyline
90
4
70
1
43
0.0
10
48.00000074505806
20
-10.000000149011612
10
43.000000670552254
20
-10.000000149011612
10
43.000000670552254
20
-5.000000074505806
10
48.00000074505806
20
-5.000000074505806
0
LWPOLYLINE
5
237
100
AcDbEntity
8
0
100
AcDbPolyline
90
4
70
1
43
0.0
10
7.000000134110449
20
-34.000000506639481
10
2.000000134110449
20
-34.000000506639481
10
2.000000134110449
20
-39.000000506639481
10
7.000000134110449
20
-39.000000506639481
0
LWPOLYLINE
5
238
100
AcDbEntity
8
0
100
AcDbPolyline
90
4
70
1
43
0.0
10
-17.800000000000004
20
-30
10
17.800000000000004
20
-30
10
17.800000000000004
20
3.7000000000000055
10
-17.800000000000004
20
3.7000000000000055
0
CIRCLE
5
239
100
AcDbEntity
8
0
100
AcDbCircle
10
-15.300000000000002
20
-27.5
30
0
40
1.3999999999999986
210
0
220
0
230
1
0
CIRCLE
5
240
100
AcDbEntity
8
0
100
AcDbCircle
10
15.300000000000002
20
-27.5
30
0
40
1.3999999999999986
210
0
220
0
230
1
0
CIRCLE
5
241
100
AcDbEntity
8
0
100
AcDbCircle
10
-15.300000000000002
20
1.2000000000000011
30
0
40
1.399999999999999
210
0
220
0
230
1
0
CIRCLE
5
242
100
AcDbEntity
8
0
100
AcDbCircle
10
15.300000000000002
20
1.1999999999999922
30
0
40
1.399999999999999
210
0
220
0
230
1
0
LINE
5
243
100
AcDbEntity
8
0
100
AcDbLine
10
0
20
-30
30
0
11
0
21
-22.550000447034833
31
0
0
LWPOLYLINE
5
244
100
AcDbEntity
8
0
100
AcDbPolyline
90
4
70
1
43
0.0
10
-14.81
20
-22.550000447034833
10
14.81
20
-22.550000447034833
10
14.81
20
-7.6500004470348326
10
-14.81
20
-7.6500004470348326
0
CIRCLE
5
245
100
AcDbEntity
8
0
100
AcDbCircle
10
-40
20
25
30
0
40
7.6000000000000014
210
0
220
0
230
1
0
CIRCLE
5
246
100
AcDbEntity
8
0
100
AcDbCircle
10
40
20
25
30
0
40
7.5999999999999979
210
0
220
0
230
1
0
ENDSEC
0
SECTION
2
OBJECTS
0
DICTIONARY
5
C
100
AcDbDictionary
3
ACAD_GROUP
350
D
3
ACAD_MLINESTYLE
350
17
0
DICTIONARY
5
D
100
AcDbDictionary
0
DICTIONARY
5
1A
330
C
100
AcDbDictionary
0
DICTIONARY
5
17
100
AcDbDictionary
0
ENDSEC
0
EOF
